<svg id="Layer_1" enable-background="new 0 0 512.038 512.038" height="512" viewBox="0 0 512.038 512.038" width="512" xmlns="http://www.w3.org/2000/svg"><g><path d="m104.019 448.012h304c8.84 0 16-7.16 16-16v-112c0-8.84-7.16-16-16-16h-304c-8.84 0-16 7.16-16 16v112c0 8.839 7.16 16 16 16z"/><path d="m171.529 184.971-14.46 84.34c-2.236 13.026 11.506 23.032 23.22 16.86l75.73-39.81 75.73 39.81c11.805 6.179 25.443-3.908 23.22-16.86l-14.46-84.34 61.27-59.72c9.469-9.231 4.235-25.378-8.87-27.29l-84.68-12.3-37.86-76.73c-5.872-11.876-22.829-11.872-28.7 0l-37.86 76.73-84.68 12.3c-13.087 1.91-18.352 18.047-8.87 27.29z"/><path d="m482.449 440.012 27.46-48.06c6.085-10.643-1.609-23.94-13.89-23.94h-35c-2.761 0-5 2.239-5 5v59c0 26.51-21.49 48-48 48h-43c-2.761 0-5 2.239-5 5v11c0 8.837 7.163 16 16 16h120c12.259 0 19.986-13.278 13.89-23.94z"/><path d="m56.019 432.012v-59c0-2.761-2.239-5-5-5h-35c-12.259 0-19.986 13.278-13.89 23.94l27.46 48.06-27.46 48.06c-6.085 10.643 1.609 23.94 13.89 23.94h120c8.837 0 16-7.163 16-16v-11c0-2.761-2.239-5-5-5h-43c-26.51 0-48-21.491-48-48z"/></g></svg>