<?xml version="1.0" encoding="iso-8859-1"?>
<!-- Generator: Adobe Illustrator 19.0.0, SVG Export Plug-In . SVG Version: 6.00 Build 0)  -->
<svg version="1.1" id="Capa_1" xmlns="http://www.w3.org/2000/svg" xmlns:xlink="http://www.w3.org/1999/xlink" x="0px" y="0px"
	 viewBox="0 0 477.867 477.867" style="enable-background:new 0 0 477.867 477.867;" xml:space="preserve">
<g>
	<g>
		<path d="M409.6,153.6H256v146.534l56.201-56.201c6.78-6.548,17.584-6.36,24.132,0.419c6.388,6.614,6.388,17.099,0,23.713
			L250.999,353.4c-6.656,6.673-17.462,6.687-24.136,0.03c-0.01-0.01-0.02-0.02-0.031-0.03L141.5,268.066
			c-6.548-6.78-6.36-17.584,0.42-24.132c6.614-6.387,17.099-6.387,23.712,0l56.235,56.201V153.6h-153.6
			c-28.277,0-51.2,22.923-51.2,51.2v221.867c0,28.277,22.923,51.2,51.2,51.2H409.6c28.277,0,51.2-22.923,51.2-51.2V204.8
			C460.8,176.523,437.877,153.6,409.6,153.6z"/>
	</g>
</g>
<g>
	<g>
		<path d="M238.933,0c-9.426,0-17.067,7.641-17.067,17.067V153.6H256V17.067C256,7.641,248.359,0,238.933,0z"/>
	</g>
</g>
<g>
</g>
<g>
</g>
<g>
</g>
<g>
</g>
<g>
</g>
<g>
</g>
<g>
</g>
<g>
</g>
<g>
</g>
<g>
</g>
<g>
</g>
<g>
</g>
<g>
</g>
<g>
</g>
<g>
</g>
</svg>
