<svg id="Capa_1" enable-background="new 0 0 512 512" height="512" viewBox="0 0 512 512" width="512" xmlns="http://www.w3.org/2000/svg"><g><path d="m15 512h226v-512h-226c-8.284 0-15 6.716-15 15v482c0 8.284 6.716 15 15 15zm43.787-442.312c0-5.291 2.787-10.19 7.335-12.894 4.549-2.702 10.184-2.811 14.832-.283l93.426 50.812c4.828 2.626 7.833 7.682 7.833 13.177s-3.005 10.551-7.833 13.177l-93.426 50.813c-2.237 1.216-4.704 1.823-7.167 1.823-2.655 0-5.306-.704-7.666-2.106-4.548-2.704-7.335-7.603-7.335-12.894v-101.625zm-6.037 154.374h135.5c8.284 0 15 6.716 15 15s-6.716 15-15 15h-135.5c-8.284 0-15-6.716-15-15s6.716-15 15-15zm0 67.75h135.5c8.284 0 15 6.716 15 15s-6.716 15-15 15h-135.5c-8.284 0-15-6.716-15-15s6.716-15 15-15zm0 67.75h135.5c8.284 0 15 6.716 15 15s-6.716 15-15 15h-135.5c-8.284 0-15-6.716-15-15s6.716-15 15-15zm0 67.75h135.5c8.284 0 15 6.716 15 15s-6.716 15-15 15h-135.5c-8.284 0-15-6.716-15-15s6.716-15 15-15z"/><path d="m88.787 94.921v51.158l47.031-25.579z"/><path d="m271 512h226c8.284 0 15-6.716 15-15v-482c0-8.284-6.716-15-15-15h-226zm37.75-442.312c0-8.284 6.716-15 15-15h135.5c8.284 0 15 6.716 15 15v101.625c0 8.284-6.716 15-15 15h-135.5c-8.284 0-15-6.716-15-15zm15 154.374h135.5c8.284 0 15 6.716 15 15s-6.716 15-15 15h-135.5c-8.284 0-15-6.716-15-15s6.716-15 15-15zm0 67.75h135.5c8.284 0 15 6.716 15 15s-6.716 15-15 15h-135.5c-8.284 0-15-6.716-15-15s6.716-15 15-15zm0 67.75h135.5c8.284 0 15 6.716 15 15s-6.716 15-15 15h-135.5c-8.284 0-15-6.716-15-15s6.716-15 15-15zm0 67.75h135.5c8.284 0 15 6.716 15 15s-6.716 15-15 15h-135.5c-8.284 0-15-6.716-15-15s6.716-15 15-15z"/><path d="m338.75 84.688h105.5v71.625h-105.5z"/></g></svg>